# xmcd
#
# Track frame offsets: 
#        150
#        20050
#        33629
#        47638
#        68529
#        82303
#        102190
#        120124
#        141542
#        158915
#        180895
#        192417
#        204190
#        230546
#        243283
#        258620
#
# Disc length: 3772 seconds
#
# Revision: 0
# Processed by: cddbd v1.5.2PL0 Copyright (c) Steve Scherf et al.
# Submitted via: ExactAudioCopy v1.0b3
#
DISCID=d80eba10
DTITLE=Tokyo Ladies' Singers - 東京レディース・シンガーズ - Iyashi no Harmony - DIS
DTITLE=C 2
DYEAR=2014
DGENRE=Chorus
TTITLE0=COSMOS - 秋桜
TTITLE1=SHOUNEN JIDAI - 少年時代
TTITLE2=SOTSUGYOU SHASHIN - 卒業写真
TTITLE3=II HI TABIDACHI - いい日旅立ち
TTITLE4=KONO HIROI NOHARA IPPAI - この広い野原いっぱい
TTITLE5=A THOUSAND WINDS - 千の風になって
TTITLE6=NADA SOUSOU - 涙そうそう
TTITLE7=HANA-SUBETE NO HITO NO KOKORO NI HANA WO- - 花～すべての人の心に花を～
TTITLE8=SATOUKIBI BATAKE - さとうきび畑
TTITLE9=SEKAI NI HITOTSU DAKE NO HANA - 世界に一つだけの花
TTITLE10=OMATSURI MAMBO - お祭りマンボ
TTITLE11=TURKISH MARCH (MOZART) - トルコ行進曲 【スキャット】
TTITLE12=AVE MARIA (SCHUBERT) - アヴェ・マリア (シューベルト)
TTITLE13=AVE MARIA (BACH-GUNO) - アヴェ・マリア (グノー)
TTITLE14=AVE MARIA (VAVILOV) - アヴェ・マリア (カッチーニ)
TTITLE15=JUPITER - Jupiter(ジュピター)
EXTD=
EXTT0=
EXTT1=
EXTT2=
EXTT3=
EXTT4=
EXTT5=
EXTT6=
EXTT7=
EXTT8=
EXTT9=
EXTT10=
EXTT11=
EXTT12=
EXTT13=
EXTT14=
EXTT15=
PLAYORDER=
